<svg width="61" height="61" viewBox="0 0 61 61" fill="none" xmlns="http://www.w3.org/2000/svg">
<g filter="url(#filter0_d_96_1886)">
<ellipse cx="30.4532" cy="30.0196" rx="26.4532" ry="26.0196" fill="url(#paint0_linear_96_1886)"/>
</g>
<path d="M28.8722 28.4026L30.177 29.0071C30.2259 29.0297 30.2792 29.0415 30.3331 29.0415C30.3871 29.0415 30.4403 29.0297 30.4893 29.0071L31.7949 28.4026C33.4133 27.6493 34.7835 26.4503 35.7448 24.9461C36.7061 23.4418 37.2187 21.6947 37.2225 19.9096V13.2686C37.2225 13.17 37.1833 13.0754 37.1136 13.0057C37.0438 12.936 36.9493 12.8968 36.8507 12.8968H33.4715C32.8564 12.8971 32.2567 12.7044 31.7569 12.3459C31.2571 11.9874 30.8824 11.481 30.6856 10.8983C30.6607 10.8246 30.6133 10.7605 30.55 10.7152C30.4868 10.6698 30.4109 10.6455 30.3331 10.6455C30.2555 10.6456 30.1798 10.6701 30.1167 10.7154C30.0536 10.7607 30.0063 10.8247 29.9815 10.8983C29.7842 11.481 29.4091 11.9873 28.9091 12.3458C28.4091 12.7043 27.8093 12.897 27.1941 12.8968H23.8171C23.7185 12.8968 23.6239 12.936 23.5542 13.0057C23.4845 13.0754 23.4453 13.17 23.4453 13.2686V19.9096C23.4489 21.6947 23.9613 23.4418 24.9225 24.946C25.8837 26.4502 27.2538 27.6493 28.8722 28.4026ZM24.1881 13.6403H27.1933C27.8224 13.6402 28.4409 13.479 28.99 13.1722C29.5391 12.8653 30.0005 12.4229 30.3302 11.8872C30.6599 12.4232 31.1215 12.8658 31.6709 13.1727C32.2203 13.4796 32.8392 13.6406 33.4685 13.6403H36.4745V19.9096C36.4713 21.5528 35.9996 23.1611 35.1148 24.5458C34.23 25.9305 32.9687 27.0342 31.4789 27.7275L30.3302 28.2584L29.1814 27.726C27.6925 27.0322 26.4321 25.9285 25.5479 24.5442C24.6637 23.1599 24.1922 21.5522 24.1888 19.9096L24.1881 13.6403Z" fill="white"/>
<path d="M30.3524 24.7347C31.007 24.7347 31.6542 24.5967 32.2517 24.3297C32.8493 24.0626 33.3839 23.6725 33.8205 23.1849C34.2571 22.6973 34.586 22.1231 34.7857 21.4997C34.9853 20.8764 35.0513 20.218 34.9793 19.5674C34.9744 19.5185 34.9598 19.4711 34.9365 19.4279C34.9132 19.3847 34.8815 19.3466 34.8434 19.3156C34.8052 19.2847 34.7613 19.2617 34.7142 19.2479C34.6671 19.234 34.6177 19.2297 34.5689 19.235C34.52 19.2404 34.4728 19.2553 34.4298 19.2791C34.3868 19.3028 34.3489 19.3348 34.3184 19.3732C34.2878 19.4117 34.2652 19.4558 34.2518 19.503C34.2384 19.5502 34.2344 19.5997 34.2402 19.6484C34.256 19.7916 34.2639 19.9356 34.264 20.0797C34.2641 20.9832 33.9514 21.8589 33.379 22.5581C32.8067 23.2572 32.01 23.7367 31.1243 23.9151C30.2385 24.0936 29.3183 23.9599 28.52 23.5369C27.7216 23.1138 27.0942 22.4275 26.7444 21.5944C26.3947 20.7613 26.344 19.8328 26.6011 18.9667C26.8582 18.1005 27.4072 17.35 28.1548 16.8426C28.9024 16.3352 29.8026 16.1023 30.7025 16.1833C31.6024 16.2643 32.4465 16.6543 33.0915 17.2871C33.1622 17.3544 33.2566 17.3913 33.3543 17.3896C33.4519 17.3879 33.545 17.3479 33.6134 17.2782C33.6818 17.2084 33.72 17.1146 33.7197 17.0169C33.7194 16.9192 33.6807 16.8256 33.612 16.7562C33.0668 16.2211 32.3983 15.8284 31.6655 15.6126C30.9328 15.3969 30.1581 15.3648 29.41 15.5191C28.6618 15.6734 27.9632 16.0095 27.3756 16.4976C26.788 16.9858 26.3295 17.611 26.0406 18.3181C25.7517 19.0253 25.6413 19.7927 25.719 20.5526C25.7967 21.3125 26.0602 22.0417 26.4863 22.6757C26.9123 23.3097 27.4878 23.8292 28.1621 24.1883C28.8363 24.5474 29.5886 24.735 30.3524 24.7347Z" fill="white"/>
<path d="M18.4395 31.3066C18.4596 31.35 18.4882 31.3889 18.5235 31.4211L22.3816 34.9802V36.3624H22.2537C22.1551 36.3624 22.0606 36.4016 21.9908 36.4713C21.9211 36.541 21.882 36.6356 21.882 36.7342V39.4108C21.882 39.5094 21.9211 39.6039 21.9908 39.6737C22.0606 39.7434 22.1551 39.7825 22.2537 39.7825C22.3523 39.7825 22.4469 39.7434 22.5166 39.6737C22.5863 39.6039 22.6255 39.5094 22.6255 39.4108V37.1059H27.2902V37.7565H23.6887C23.5901 37.7565 23.4955 37.7957 23.4258 37.8654C23.3561 37.9351 23.3169 38.0296 23.3169 38.1282C23.3169 38.2268 23.3561 38.3214 23.4258 38.3911C23.4955 38.4608 23.5901 38.5 23.6887 38.5H27.2902V40.3811H20.2024C20.1038 40.3811 20.0092 40.4202 19.9395 40.4899C19.8698 40.5597 19.8306 40.6542 19.8306 40.7528C19.8306 40.8514 19.8698 40.946 19.9395 41.0157C20.0092 41.0854 20.1038 41.1246 20.2024 41.1246H40.4056C40.5042 41.1246 40.5988 41.0854 40.6685 41.0157C40.7382 40.946 40.7774 40.8514 40.7774 40.7528C40.7774 40.6542 40.7382 40.5597 40.6685 40.4899C40.5988 40.4202 40.5042 40.3811 40.4056 40.3811H33.2219V38.5H36.8494C36.948 38.5 37.0426 38.4608 37.1123 38.3911C37.182 38.3214 37.2212 38.2268 37.2212 38.1282C37.2212 38.0296 37.182 37.9351 37.1123 37.8654C37.0426 37.7957 36.948 37.7565 36.8494 37.7565H33.2219V37.1059H37.8866V39.448C37.8866 39.5466 37.9258 39.6411 37.9955 39.7108C38.0652 39.7805 38.1598 39.8197 38.2584 39.8197C38.357 39.8197 38.4515 39.7805 38.5213 39.7108C38.591 39.6411 38.6301 39.5466 38.6301 39.448V36.7342C38.6301 36.6356 38.591 36.541 38.5213 36.4713C38.4515 36.4016 38.357 36.3624 38.2584 36.3624H38.1305V34.9795L41.9885 31.4203C42.0239 31.3882 42.0525 31.3493 42.0726 31.3058L44.1596 26.8835C44.1831 26.8337 44.1953 26.7794 44.1953 26.7244V21.8403C44.1999 21.6262 44.1617 21.4134 44.083 21.2143C44.0042 21.0152 43.8865 20.8338 43.7368 20.6808C43.587 20.5278 43.4082 20.4063 43.2109 20.3233C43.0135 20.2403 42.8015 20.1975 42.5874 20.1975C42.3733 20.1975 42.1614 20.2403 41.964 20.3233C41.7667 20.4063 41.5879 20.5278 41.4381 20.6808C41.2884 20.8338 41.1707 21.0152 41.0919 21.2143C41.0132 21.4134 40.975 21.6262 40.9796 21.8403V26.1422L40.6651 26.5043C40.5867 26.2326 40.4379 25.9864 40.2339 25.7906C40.0299 25.5947 39.7778 25.4562 39.5031 25.3889C39.2285 25.3217 38.9409 25.328 38.6695 25.4074C38.3981 25.4868 38.1524 25.6364 37.9573 25.8411L32.5817 31.4724C32.5158 31.5415 32.4791 31.6334 32.4791 31.7289V40.3818H28.0337V31.7289C28.0337 31.6334 27.997 31.5415 27.9311 31.4724L22.5556 25.8411C22.3606 25.636 22.1148 25.486 21.8433 25.4064C21.5717 25.3268 21.2839 25.3203 21.009 25.3876C20.7342 25.4549 20.4819 25.5936 20.2779 25.7897C20.0738 25.9858 19.9252 26.2323 19.847 26.5043L19.5295 26.1422V21.8403C19.5341 21.6262 19.4959 21.4134 19.4172 21.2143C19.3385 21.0152 19.2208 20.8338 19.071 20.6808C18.9212 20.5278 18.7424 20.4063 18.5451 20.3233C18.3477 20.2403 18.1358 20.1975 17.9217 20.1975C17.7076 20.1975 17.4956 20.2403 17.2983 20.3233C17.1009 20.4063 16.9221 20.5278 16.7723 20.6808C16.6226 20.8338 16.5049 21.0152 16.4262 21.2143C16.3474 21.4134 16.3092 21.6262 16.3138 21.8403V26.7244C16.3138 26.7794 16.326 26.8337 16.3495 26.8835L18.4395 31.3066ZM38.4948 26.3541C38.5739 26.2713 38.6687 26.2049 38.7736 26.159C38.8786 26.1131 38.9916 26.0884 39.1061 26.0865C39.2206 26.0845 39.3344 26.1054 39.4408 26.1477C39.5472 26.1901 39.6442 26.2532 39.7261 26.3333C39.8842 26.4882 39.9771 26.6978 39.9855 26.9191C39.9939 27.1403 39.9173 27.3564 39.7714 27.5229L38.8889 28.5296L37.4799 30.1363C37.4453 30.1726 37.4185 30.2155 37.4009 30.2624C37.3833 30.3093 37.3753 30.3593 37.3776 30.4094C37.3798 30.4595 37.3921 30.5086 37.4138 30.5537C37.4355 30.5989 37.4661 30.6392 37.5038 30.6723C37.5414 30.7054 37.5854 30.7305 37.633 30.7461C37.6806 30.7617 37.7309 30.7676 37.7808 30.7633C37.8308 30.759 37.8793 30.7446 37.9236 30.7211C37.9678 30.6975 38.0068 30.6653 38.0383 30.6263L39.8644 28.5445L40.3305 28.0129L41.6332 26.5259C41.6927 26.458 41.7254 26.3708 41.7253 26.2805V21.8403C41.722 21.7246 41.7418 21.6095 41.7837 21.5017C41.8256 21.3938 41.8887 21.2955 41.9693 21.2125C42.0499 21.1295 42.1464 21.0636 42.2529 21.0185C42.3595 20.9735 42.474 20.9502 42.5897 20.9502C42.7054 20.9502 42.8199 20.9735 42.9264 21.0185C43.033 21.0636 43.1294 21.1295 43.21 21.2125C43.2906 21.2955 43.3537 21.3938 43.3956 21.5017C43.4375 21.6095 43.4574 21.7246 43.454 21.8403V26.6411L41.4317 30.9237L37.5067 34.5438C37.4689 34.5787 37.4388 34.621 37.4182 34.6681C37.3976 34.7152 37.387 34.766 37.387 34.8174V36.3624H33.2234V31.8783L38.4948 26.3541ZM17.0581 21.8403C17.0547 21.7246 17.0746 21.6095 17.1165 21.5017C17.1584 21.3938 17.2215 21.2955 17.3021 21.2125C17.3827 21.1295 17.4791 21.0636 17.5857 21.0185C17.6922 20.9735 17.8067 20.9502 17.9224 20.9502C18.0381 20.9502 18.1526 20.9735 18.2592 21.0185C18.3657 21.0636 18.4622 21.1295 18.5428 21.2125C18.6233 21.2955 18.6865 21.3938 18.7284 21.5017C18.7703 21.6095 18.7901 21.7246 18.7867 21.8403V26.282C18.7867 26.3722 18.8194 26.4595 18.8789 26.5273L20.1816 28.0143L20.6477 28.546L22.4738 30.6278C22.5052 30.6668 22.5443 30.699 22.5885 30.7226C22.6328 30.7461 22.6813 30.7604 22.7312 30.7647C22.7812 30.769 22.8315 30.7632 22.8791 30.7476C22.9267 30.7319 22.9707 30.7068 23.0083 30.6738C23.046 30.6407 23.0766 30.6004 23.0983 30.5552C23.12 30.51 23.1323 30.4609 23.1345 30.4109C23.1367 30.3608 23.1288 30.3108 23.1112 30.2639C23.0936 30.217 23.0667 30.1741 23.0322 30.1378L21.6195 28.5311L20.7392 27.5221C20.6285 27.3959 20.557 27.2402 20.5332 27.074C20.5095 26.9078 20.5347 26.7383 20.6056 26.5861C20.6765 26.4339 20.7902 26.3057 20.9327 26.2169C21.0752 26.1282 21.2405 26.0829 21.4083 26.0864C21.5229 26.0879 21.6361 26.1123 21.7411 26.1583C21.846 26.2043 21.9407 26.2709 22.0195 26.3541L27.2924 31.8783V36.3624H23.1288V34.8174C23.1289 34.766 23.1182 34.7152 23.0976 34.6681C23.077 34.621 23.0469 34.5787 23.0091 34.5438L19.0841 30.9237L17.0618 26.6411L17.0581 21.8403Z" fill="white"/>
<path d="M28.067 19.8395C27.9969 19.7718 27.903 19.7343 27.8055 19.7352C27.7081 19.736 27.6148 19.7751 27.5459 19.844C27.477 19.913 27.4379 20.0062 27.437 20.1037C27.4362 20.2012 27.4737 20.2951 27.5414 20.3652L29.7592 22.5838C29.829 22.6535 29.9235 22.6926 30.0221 22.6926C30.1206 22.6926 30.2152 22.6535 30.2849 22.5838L35.5846 17.2848C35.6544 17.215 35.6936 17.1204 35.6936 17.0216C35.6936 16.9229 35.6544 16.8282 35.5846 16.7584C35.5148 16.6886 35.4201 16.6494 35.3214 16.6494C35.2227 16.6494 35.128 16.6886 35.0582 16.7584L30.0224 21.7949L28.067 19.8395Z" fill="white"/>
<mask id="mask0_96_1886" style="mask-type:alpha" maskUnits="userSpaceOnUse" x="40" y="14" width="17" height="40">
<path d="M46.1456 22.4594C46.1456 22.4594 48.1456 11.9594 52.1456 15.4594C56.1456 18.9595 58.2789 28.9594 56.1456 36.9594C54.0122 44.9595 48.1455 49.4595 43.1456 52.9594C38.1456 56.4594 43.1456 36.9594 43.1456 36.9594H46.1456V22.4594Z" fill="#D9D9D9"/>
</mask>
<g mask="url(#mask0_96_1886)">
<path d="M34.7347 64.9958L49.731 49.9533V30.1516" stroke="white" stroke-width="0.5" stroke-linecap="round"/>
<path d="M49.2288 28.8286L51.4949 30.5468V50.3057L36.9397 64.996" stroke="white" stroke-width="0.5" stroke-linecap="round"/>
<path d="M49.1471 25.3002L53.2595 29.7776V50.8132L41.3508 63.2318" stroke="white" stroke-width="0.5" stroke-linecap="round"/>
<path d="M49.8376 23.0944L55.0239 28.795V50.8316L45.3205 61.467" stroke="white" stroke-width="0.5" stroke-linecap="round"/>
<path d="M55.0245 29.2697L56.3477 30.7558V48.6765" stroke="white" stroke-width="0.5" stroke-linecap="round"/>
<path d="M46.2029 40.2963L46.2029 46.9122" stroke="white" stroke-width="0.5" stroke-linecap="round"/>
<path d="M49.731 39.4139H47.5256" stroke="white" stroke-width="0.5" stroke-linecap="round"/>
<circle cx="1.10266" cy="1.10266" r="0.852663" transform="matrix(-1 0 0 1 49.731 26.6234)" stroke="white" stroke-width="0.5"/>
<circle cx="1.10266" cy="1.10266" r="0.852663" transform="matrix(-1 0 0 1 47.5254 38.0909)" stroke="white" stroke-width="0.5"/>
<circle cx="1.10266" cy="1.10266" r="0.852663" transform="matrix(-1 0 0 1 50.1719 21.3306)" stroke="white" stroke-width="0.5"/>
</g>
<mask id="mask1_96_1886" style="mask-type:alpha" maskUnits="userSpaceOnUse" x="4" y="15" width="17" height="40">
<path d="M14.9877 23.1738C14.9877 23.1738 12.9878 12.6737 8.98775 16.1738C4.98775 19.6738 2.85441 29.6737 4.98775 37.6738C7.12109 45.6738 12.9878 50.1738 17.9877 53.6738C22.9877 57.1737 17.9877 37.6738 17.9877 37.6738H14.9877V23.1738Z" fill="#D9D9D9"/>
</mask>
<g mask="url(#mask1_96_1886)">
<path d="M26.1176 64.9958L11.1213 49.9533V30.1516" stroke="white" stroke-width="0.5" stroke-linecap="round"/>
<path d="M11.6228 28.8286L9.35669 30.5468V50.3057L23.9118 64.996" stroke="white" stroke-width="0.5" stroke-linecap="round"/>
<path d="M11.7047 25.3002L7.59229 29.7776V50.8132L19.501 63.2318" stroke="white" stroke-width="0.5" stroke-linecap="round"/>
<path d="M11.014 23.0944L5.82764 28.795V50.8316L15.5311 61.467" stroke="white" stroke-width="0.5" stroke-linecap="round"/>
<path d="M5.82735 29.2697L4.50415 30.7558V48.6765" stroke="white" stroke-width="0.5" stroke-linecap="round"/>
<path d="M14.6487 40.2963L14.6487 46.9122" stroke="white" stroke-width="0.5" stroke-linecap="round"/>
<path d="M11.1213 39.4139H13.3267" stroke="white" stroke-width="0.5" stroke-linecap="round"/>
<circle cx="12.224" cy="27.7261" r="0.852663" stroke="white" stroke-width="0.5"/>
<circle cx="14.4288" cy="39.1936" r="0.852663" stroke="white" stroke-width="0.5"/>
<circle cx="11.7824" cy="22.4332" r="0.852663" stroke="white" stroke-width="0.5"/>
</g>
<defs>
<filter id="filter0_d_96_1886" x="0" y="0" width="60.9065" height="60.0392" filterUnits="userSpaceOnUse" color-interpolation-filters="sRGB">
<feFlood flood-opacity="0" result="BackgroundImageFix"/>
<feColorMatrix in="SourceAlpha" type="matrix" values="0 0 0 0 0 0 0 0 0 0 0 0 0 0 0 0 0 0 127 0" result="hardAlpha"/>
<feOffset/>
<feGaussianBlur stdDeviation="2"/>
<feComposite in2="hardAlpha" operator="out"/>
<feColorMatrix type="matrix" values="0 0 0 0 0 0 0 0 0 0.431373 0 0 0 0 0.717647 0 0 0 0.62 0"/>
<feBlend mode="normal" in2="BackgroundImageFix" result="effect1_dropShadow_96_1886"/>
<feBlend mode="normal" in="SourceGraphic" in2="effect1_dropShadow_96_1886" result="shape"/>
</filter>
<linearGradient id="paint0_linear_96_1886" x1="29.4854" y1="13.202" x2="29.4854" y2="56.6738" gradientUnits="userSpaceOnUse">
<stop stop-color="#006EB7"/>
<stop offset="1" stop-color="#124C72"/>
</linearGradient>
</defs>
</svg>
